<?xml version="1.0" encoding="UTF-8" standalone="no"?>
<svg
   id="Layer_1"
   data-name="Layer 1"
   viewBox="0 0 122.88 79.09"
   version="1.1"
   sodipodi:docname="monitoring-system-icon.svg"
   inkscape:export-filename="monitoring-system-icon.svg"
   inkscape:export-xdpi="600.607"
   inkscape:export-ydpi="600.607"
   inkscape:version="1.2.1 (9c6d41e410, 2022-07-14, custom)"
   xmlns:inkscape="http://www.inkscape.org/namespaces/inkscape"
   xmlns:sodipodi="http://sodipodi.sourceforge.net/DTD/sodipodi-0.dtd"
   xmlns="http://www.w3.org/2000/svg"
   xmlns:svg="http://www.w3.org/2000/svg">
  <sodipodi:namedview
     id="namedview11"
     pagecolor="#ffffff"
     bordercolor="#666666"
     borderopacity="1.0"
     inkscape:showpageshadow="2"
     inkscape:pageopacity="0.0"
     inkscape:pagecheckerboard="0"
     inkscape:deskcolor="#d1d1d1"
     showgrid="false"
     inkscape:zoom="2.9839425"
     inkscape:cx="61.495823"
     inkscape:cy="39.544998"
     inkscape:window-width="2560"
     inkscape:window-height="1371"
     inkscape:window-x="0"
     inkscape:window-y="0"
     inkscape:window-maximized="1"
     inkscape:current-layer="Layer_1" />
  <defs
     id="defs4">
    <style
       id="style2">.cls-1{fill-rule:evenodd;}</style>
  </defs>
  <title
     id="title6">monitoring-system</title>
  <path
     class="cls-1"
     d="M99.61,0V21.93l-1,0c-.87,0-1.74.05-2.59.13V3.56H3.56v50H73.17a26.37,26.37,0,0,0,1.39,4.39,26,26,0,0,0,5.34,8.18H65.52v6.66h10v6.34H23.92V72.75H34.59V66.09H0V0ZM98.8,29a19.18,19.18,0,0,1,16.42,29l7.42,8.08a.92.92,0,0,1-.06,1.3l-5.44,5a.93.93,0,0,1-1.3-.06l-7.09-7.81a19.08,19.08,0,0,1-10,2.79,19.06,19.06,0,0,1-7.33-1.46l0,0a19.17,19.17,0,0,1-10.34-25l0,0A19.23,19.23,0,0,1,91.47,30.45,19.05,19.05,0,0,1,98.8,29Zm10.77,8.3a15.31,15.31,0,0,0-24.9,5l0,0a15.35,15.35,0,0,0-1.14,5.81A15.1,15.1,0,0,0,84.67,54,15.26,15.26,0,0,0,88,59a15.49,15.49,0,0,0,5,3.32l0,0A15.3,15.3,0,0,0,112.93,54l0,0a15.27,15.27,0,0,0-3.34-16.61l0-.05Zm-33.11-3H74.89a1.4,1.4,0,0,1-1.38-1.17l-2.2-11L68.15,33.65a1.39,1.39,0,0,1-1.7,1,1.37,1.37,0,0,1-.9-.77L62.44,27l-2.26,5.54a1.39,1.39,0,0,1-1.29.87H54.81a1.4,1.4,0,0,1-1.32-.94L51.26,27l-3.1,6.85a1.39,1.39,0,0,1-2.64-.3L42.39,22.1l-4.5,22.57a1.4,1.4,0,0,1-2.73,0L30.58,30.47l-1,2.51a1.39,1.39,0,0,1-1.29.87H11.74a1.4,1.4,0,1,1,0-2.79H27.35l2.09-5.22a1.39,1.39,0,0,1,2.61.09L36.2,38.86l4.61-23.09a1.41,1.41,0,0,1,1-1.07,1.38,1.38,0,0,1,1.7,1L47.21,29.2l2.84-6.27a1.36,1.36,0,0,1,.76-.73,1.38,1.38,0,0,1,1.81.77l3.13,7.66H58L61.08,23a1.36,1.36,0,0,1,.72-.75,1.39,1.39,0,0,1,1.84.7l2.85,6.28,3.66-13.41a1.39,1.39,0,0,1,2.74,0L76,31.52h2.41a27.09,27.09,0,0,0-2,2.79Zm-30,23.06h6.58a1.25,1.25,0,0,1,1.26,1.26h0a1.27,1.27,0,0,1-1.26,1.26H46.49a1.27,1.27,0,0,1-1.26-1.26h0a1.26,1.26,0,0,1,1.26-1.26Zm11.38,0h1.21a1.26,1.26,0,0,1,1.27,1.26h0a1.27,1.27,0,0,1-1.27,1.26H57.87a1.27,1.27,0,0,1-1.26-1.26h0a1.26,1.26,0,0,1,1.26-1.26Zm-17.34,0h1.21A1.25,1.25,0,0,1,43,58.63h0a1.26,1.26,0,0,1-1.26,1.26H40.53a1.27,1.27,0,0,1-1.26-1.26h0a1.26,1.26,0,0,1,1.26-1.26Z"
     id="path8" />
</svg>
