<?xml version="1.0" encoding="UTF-8" standalone="no"?>
<svg
   id="Layer_1"
   data-name="Layer 1"
   viewBox="0 0 122.88 122.88"
   version="1.1"
   sodipodi:docname="monitoring-system-icon.svg"
   inkscape:export-filename="monitoring-system-icon.svg"
   inkscape:export-xdpi="600.607"
   inkscape:export-ydpi="600.607"
   inkscape:version="1.2.1 (9c6d41e410, 2022-07-14, custom)"
   width="122.88"
   height="122.88"
   xmlns:inkscape="http://www.inkscape.org/namespaces/inkscape"
   xmlns:sodipodi="http://sodipodi.sourceforge.net/DTD/sodipodi-0.dtd"
   xmlns="http://www.w3.org/2000/svg"
   xmlns:svg="http://www.w3.org/2000/svg"
   xmlns:rdf="http://www.w3.org/1999/02/22-rdf-syntax-ns#"
   xmlns:cc="http://creativecommons.org/ns#"
   xmlns:dc="http://purl.org/dc/elements/1.1/">
  <sodipodi:namedview
     id="namedview11"
     pagecolor="#ffffff"
     bordercolor="#666666"
     borderopacity="1.0"
     inkscape:showpageshadow="2"
     inkscape:pageopacity="0.0"
     inkscape:pagecheckerboard="0"
     inkscape:deskcolor="#d1d1d1"
     showgrid="false"
     inkscape:zoom="1.054983"
     inkscape:cx="-237.44459"
     inkscape:cy="67.299663"
     inkscape:window-width="2560"
     inkscape:window-height="1371"
     inkscape:window-x="0"
     inkscape:window-y="0"
     inkscape:window-maximized="1"
     inkscape:current-layer="Layer_1" />
  <defs
     id="defs4">
    <style
       id="style2">.cls-1{fill-rule:evenodd;}</style>
  </defs>
  <title
     id="title6">monitoring-system</title>
  <path
     class="cls-1"
     d="m 99.609845,21.874999 v 21.93 h -1 c -0.87,0 -1.74,0.05 -2.59,0.13 v -18.5 H 3.5598451 v 50 H 73.169845 a 26.37,26.37 0 0 0 1.39,4.39 26,26 0 0 0 5.34,8.18 h -14.38 v 6.66 h 10 V 101.005 h -51.6 v -6.380001 h 10.67 v -6.66 H -1.549287e-4 v -66.09 z m -0.81,29 a 19.18,19.18 0 0 1 16.420005,29 l 7.42,8.08 a 0.92,0.92 0 0 1 -0.06,1.3 l -5.44,5 a 0.93,0.93 0 0 1 -1.3,-0.06 l -7.09,-7.81 a 19.08,19.08 0 0 1 -10.000005,2.79 19.06,19.06 0 0 1 -7.33,-1.46 v 0 a 19.17,19.17 0 0 1 -10.34,-25 v 0 a 19.23,19.23 0 0 1 10.39,-10.39 19.05,19.05 0 0 1 7.33,-1.45 z m 10.770005,8.3 a 15.31,15.31 0 0 0 -24.900005,5 v 0 a 15.35,15.35 0 0 0 -1.14,5.81 15.1,15.1 0 0 0 1.14,5.89 15.26,15.26 0 0 0 3.33,5 15.49,15.49 0 0 0 5,3.32 v 0 a 15.3,15.3 0 0 0 19.930005,-8.32 v 0 a 15.27,15.27 0 0 0 -3.34,-16.61 v -0.05 z m -33.110005,-3 h -1.57 a 1.4,1.4 0 0 1 -1.38,-1.17 l -2.2,-11 -3.16,11.52 a 1.39,1.39 0 0 1 -1.7,1 1.37,1.37 0 0 1 -0.9,-0.77 l -3.11,-6.88 -2.26,5.54 a 1.39,1.39 0 0 1 -1.29,0.87 h -4.08 a 1.4,1.4 0 0 1 -1.32,-0.94 l -2.23,-5.47 -3.1,6.85 a 1.39,1.39 0 0 1 -2.64,-0.3 l -3.13,-11.45 -4.5,22.57 a 1.4,1.4 0 0 1 -2.73,0 l -4.58,-14.2 -1,2.51 a 1.39,1.39 0 0 1 -1.29,0.87 h -16.55 a 1.4,1.4 0 1 1 0,-2.79 h 15.61 l 2.09,-5.22 a 1.39,1.39 0 0 1 2.61,0.09 l 4.15,12.93 4.61,-23.09 a 1.41,1.41 0 0 1 1,-1.07 1.38,1.38 0 0 1 1.7,1 l 3.7,13.5 2.84,-6.27 a 1.36,1.36 0 0 1 0.76,-0.73 1.38,1.38 0 0 1 1.81,0.77 l 3.13,7.66 h 2.25 l 3.08,-7.63 a 1.36,1.36 0 0 1 0.72,-0.75 1.39,1.39 0 0 1 1.84,0.7 l 2.85,6.28 3.66,-13.41 a 1.39,1.39 0 0 1 2.74,0 l 3.11,15.7 h 2.41 a 27.09,27.09 0 0 0 -2,2.79 z m -30,23.06 h 6.58 a 1.25,1.25 0 0 1 1.26,1.26 v 0 a 1.27,1.27 0 0 1 -1.26,1.26 h -6.55 a 1.27,1.27 0 0 1 -1.26,-1.26 v 0 a 1.26,1.26 0 0 1 1.26,-1.26 z m 11.38,0 h 1.21 a 1.26,1.26 0 0 1 1.27,1.26 v 0 a 1.27,1.27 0 0 1 -1.27,1.26 h -1.18 a 1.27,1.27 0 0 1 -1.26,-1.26 v 0 a 1.26,1.26 0 0 1 1.26,-1.26 z m -17.34,0 h 1.21 a 1.25,1.25 0 0 1 1.29,1.27 v 0 a 1.26,1.26 0 0 1 -1.26,1.26 h -1.21 a 1.27,1.27 0 0 1 -1.26,-1.26 v 0 a 1.26,1.26 0 0 1 1.26,-1.26 z"
     id="path8" />
  <metadata
     id="metadata62">
    <rdf:RDF>
      <cc:Work
         rdf:about="">
        <dc:title>monitoring-system</dc:title>
      </cc:Work>
    </rdf:RDF>
  </metadata>
</svg>
